<?xml version="1.0" encoding="UTF-8" standalone="no"?>
<!-- Generator: Adobe Illustrator 15.0.0, SVG Export Plug-In  -->

<svg
   xmlns:dc="http://purl.org/dc/elements/1.1/"
   xmlns:cc="http://creativecommons.org/ns#"
   xmlns:rdf="http://www.w3.org/1999/02/22-rdf-syntax-ns#"
   xmlns:svg="http://www.w3.org/2000/svg"
   xmlns="http://www.w3.org/2000/svg"
   xmlns:sodipodi="http://sodipodi.sourceforge.net/DTD/sodipodi-0.dtd"
   xmlns:inkscape="http://www.inkscape.org/namespaces/inkscape"
   version="1.1"
   x="0px"
   y="0px"
   width="28.622801"
   height="16.269987"
   viewBox="0 0 28.622801 16.269987"
   enable-background="new 0 0 482 283"
   xml:space="preserve"
   id="svg2"
   inkscape:version="0.48.3.1 r9886"
   sodipodi:docname="ch-0.svg"><metadata
   id="metadata32"><rdf:RDF><cc:Work
       rdf:about=""><dc:format>image/svg+xml</dc:format><dc:type
         rdf:resource="http://purl.org/dc/dcmitype/StillImage" /><dc:title /></cc:Work></rdf:RDF></metadata><sodipodi:namedview
   pagecolor="#ffffff"
   bordercolor="#666666"
   borderopacity="1"
   objecttolerance="10"
   gridtolerance="10"
   guidetolerance="10"
   inkscape:pageopacity="0"
   inkscape:pageshadow="2"
   inkscape:window-width="1301"
   inkscape:window-height="648"
   id="namedview30"
   showgrid="false"
   fit-margin-top="0"
   fit-margin-left="0"
   fit-margin-right="0"
   fit-margin-bottom="0"
   inkscape:zoom="24.411321"
   inkscape:cx="15.7369"
   inkscape:cy="7.7221884"
   inkscape:window-x="65"
   inkscape:window-y="24"
   inkscape:window-maximized="1"
   inkscape:current-layer="svg2" />
<defs
   id="defs4">
</defs>

<path
   d="m 28.6228,14.86185 c 0,0.95175 -0.45645,1.408138 -1.408024,1.408138 L 1.4080876,16.267488 C 0.4565125,16.267488 6.25e-5,15.8111 6.25e-5,14.85935 L 0,1.4081874 C 0,0.4567499 0.4565125,4.9893921e-5 1.4080251,4.9893921e-5 H 27.214587 c 0.951575,0 1.40815,0.456700006079 1.40815,1.408137506079 V 14.8619 z"
   id="path8"
   inkscape:connector-curvature="0"
   style="fill:#749974;fill-opacity:1" />
<path
   d="m 0,4.7201624 v -3.3119 C 0,0.4564499 0.4565125,-1.060791e-7 1.4080251,-1.060791e-7 H 27.214587 c 0.9517,0 1.40815,0.4564500060791 1.40815,1.4082625060791 v 3.3119 H 0 z"
   id="path10"
   inkscape:connector-curvature="0"
   style="fill:#BD5E5C;fill-opacity:1" />
<path
   d="m 4.61825,3.1528874 v 0.09725 H 4.3866625 V 1.5654499 h 1.4903251 v 1.669675 H 5.6398001 V 3.1529999 H 4.61825 z M 5.6398626,2.9549249 V 1.7670999 H 4.61825 v 1.187825 H 5.6398626 z M 4.9917875,2.0603749 H 4.67055 V 1.8736124 H 5.5726251 V 2.0603749 H 5.2196376 v 0.160625 h 0.3175 v 0.1867625 h -0.11575 c 0.041,0.061 0.081,0.1245 0.1195,0.1905 l -0.1252,0.05225 H 5.6062501 V 2.8428749 H 4.6500125 V 2.6505124 H 4.9918 V 2.4077749 H 4.70605 V 2.2210124 H 4.9918 V 2.0603249 z M 5.4008001,2.4077624 H 5.2196376 v 0.2427375 h 0.1195 c -0.026125,-0.049875 -0.05975,-0.102625 -0.100875,-0.15875 l 0.1624875,-0.084 z"
   id="path12"
   inkscape:connector-curvature="0"
   style="fill:#ffffff" />
<path
   d="m 10.985001,2.1126749 h -0.300688 v -0.17935 h 0.997375 v 0.17935 h -0.367925 c -0.04113,0.032375 -0.08525,0.064625 -0.1326,0.097125 0.07225,0.066125 0.127625,0.1407625 0.166225,0.2241875 0.112,-0.05725 0.2266,-0.142 0.3437,-0.254 0.10325,0.0735 0.163425,0.117625 0.180238,0.1325375 0.01687,0.015 0.02525,0.02775 0.02525,0.03825 0,0.01 -0.01525,0.019625 -0.04575,0.027125 -0.0305,0.0075 -0.1005,0.041125 -0.210113,0.10075 0.04725,0.1943 0.174313,0.3567125 0.381,0.48745 -0.0735,0.04725 -0.141375,0.10275 -0.203575,0.166225 -0.174375,-0.1407 -0.289475,-0.3274625 -0.345575,-0.5603 -0.01487,0.00875 -0.03675,0.0205 -0.06537,0.0355 0.02238,0.107125 0.03362,0.202325 0.03362,0.28575 0,0.1283125 -0.03262,0.21945 -0.098,0.273675 -0.06537,0.05425 -0.178987,0.08125 -0.34085,0.08125 -0.0075,-0.08475 -0.03488,-0.1613 -0.08213,-0.2297125 0.03738,0.00124 0.06975,0.00125 0.09713,0.00125 0.08088,0 0.133788,-0.0075 0.15875,-0.022375 0.02487,-0.014875 0.03737,-0.03925 0.03737,-0.072875 0,-0.033625 -0.0025,-0.08275 -0.0075,-0.1475375 -0.191737,0.156875 -0.428937,0.29135 -0.711575,0.4034 -0.03112,-0.077125 -0.07912,-0.1370125 -0.1438,-0.17935 0.140688,-0.037375 0.286063,-0.095875 0.436088,-0.1755625 0.149974,-0.079625 0.276099,-0.1649125 0.378199,-0.2558 -0.0075,-0.027375 -0.01487,-0.049125 -0.02238,-0.065375 -0.144425,0.109625 -0.342399,0.217275 -0.593913,0.3231125 -0.03737,-0.059875 -0.084,-0.113875 -0.140062,-0.16255 0.240237,-0.0585 0.451337,-0.1605625 0.633125,-0.3063 -0.01,-0.0125 -0.02425,-0.0255 -0.043,-0.039125 -0.1793,0.10075 -0.347325,0.1743125 -0.504275,0.2203125 -0.03988,-0.0685 -0.08162,-0.1294875 -0.125125,-0.1829625 0.278775,-0.06125 0.484212,-0.14275 0.6162,-0.2447875 z m 0.07475,-0.461375 C 11.055951,1.6089249 11.0455,1.5591749 11.028,1.5018874 l 0.296963,-0.03175 c 0.0088,0.05975 0.01313,0.120125 0.01313,0.1811625 h 0.644399 V 2.0304374 H 11.735951 V 1.8380749 h -1.098238 v 0.1923625 h -0.22965 V 1.6512999 h 0.651738 z"
   id="path14"
   inkscape:connector-curvature="0"
   style="fill:#ffffff" />
<path
   d="m 17.131488,1.6438374 c -0.01,-0.0535 -0.0205,-0.100875 -0.03175,-0.14195 l 0.293213,-0.026125 c 0.0125,0.06475 0.0205,0.12075 0.02425,0.1680875 h 0.636862 V 1.8380874 H 16.446025 V 1.6438499 h 0.685425 z m -0.043,1.4082 v 0.061625 H 16.884913 V 2.6223999 h 0.733988 v 0.3847375 c 0.0435,0.00625 0.075,0.00875 0.09437,0.00875 0.01925,0 0.0315,-0.00375 0.03638,-0.0125 0.005,-0.0075 0.0075,-0.024 0.0075,-0.047625 v -0.3922 h -1.002925 v 0.661075 h -0.229663 v -0.84965 h 1.469838 v 0.60325 c 0,0.061 -0.0088,0.109 -0.02712,0.1438125 -0.018,0.034875 -0.05138,0.061625 -0.09988,0.08025 -0.04862,0.01875 -0.12025,0.031125 -0.214775,0.037375 -0.0013,-0.06225 -0.0125,-0.116375 -0.03363,-0.162425 v 0.028 h -0.214775 v -0.054125 h -0.3157 z M 17.79265,2.3180499 h -1.055212 v -0.42395 h 1.055212 v 0.42395 z M 17.533051,2.1574374 v -0.097125 h -0.556564 v 0.097125 h 0.556564 z m -0.128864,0.7395875 v -0.11025 H 17.08855 v 0.11025 h 0.315637 z"
   id="path16"
   inkscape:connector-curvature="0"
   style="fill:#ffffff" />
<path
   d="m 24.236012,2.9343749 c -0.02737,0.07475 -0.04675,0.1550125 -0.058,0.2409875 -0.166837,0.00625 -0.319362,0.00875 -0.457574,0.00875 -0.300062,0 -0.4996,-0.01125 -0.598575,-0.032625 -0.099,-0.021875 -0.16965,-0.052 -0.211925,-0.090625 -0.02738,-0.024875 -0.04775,-0.037375 -0.06075,-0.037375 -0.01312,0 -0.02838,0.0075 -0.04575,0.022375 -0.0175,0.014875 -0.04675,0.042375 -0.08775,0.082125 -0.04113,0.03975 -0.07038,0.074 -0.08775,0.102625 -0.0735,-0.076 -0.137575,-0.1407625 -0.192362,-0.1942375 0.07963,-0.06225 0.139074,-0.104625 0.1783,-0.127 0.03925,-0.022375 0.06288,-0.04025 0.071,-0.053125 0.0075,-0.013125 0.0125,-0.037125 0.0125,-0.071875 v -0.498725 h -0.216639 v -0.2073 h 0.446364 v 0.6686125 c 0,0.041125 0.01625,0.077625 0.0485,0.109375 0.03238,0.03175 0.07063,0.055125 0.114875,0.07 0.04425,0.014875 0.115125,0.026125 0.212912,0.0335 0.09775,0.0075 0.23345,0.01125 0.407138,0.01125 0.1737,0 0.348875,-0.0125 0.52575,-0.037375 z M 22.9921,1.8847624 22.762437,1.9893874 c -0.04988,-0.117 -0.11825,-0.2302875 -0.205437,-0.3399125 l 0.220312,-0.117625 c 0.09463,0.1407 0.166289,0.258425 0.214788,0.3529875 z m 0.457625,-0.033625 H 23.0015 v -0.192425 h 0.448225 v -0.15495 H 23.6533 c 0.02988,0 0.04488,0.0075 0.04488,0.02425 0,0.0075 -0.0038,0.01875 -0.0125,0.033625 -0.0088,0.014875 -0.0125,0.047375 -0.0125,0.097125 h 0.459438 v 0.192425 h -0.461312 v 0.104625 h 0.3792 v 0.498725 h -0.214775 c 0.09713,0.081 0.20295,0.1768125 0.3175,0.2875625 l -0.186775,0.145675 c -0.08087,-0.103375 -0.179289,-0.19915 -0.295089,-0.2875625 V 2.9214499 H 23.44918 v -0.336175 c -0.08212,0.11325 -0.192363,0.217275 -0.330638,0.3119 -0.0485,-0.051 -0.107125,-0.103375 -0.175487,-0.1568875 0.09337,-0.049875 0.164662,-0.094375 0.213837,-0.1336 0.04925,-0.03925 0.09437,-0.089875 0.135413,-0.15215 h -0.214793 v -0.498725 h 0.371725 v -0.104625 z m 0,0.4277625 v -0.143875 h -0.158813 v 0.143875 h 0.158813 z m 0.222187,-0.143875 v 0.143875 h 0.160625 v -0.143875 h -0.160625 z m 0,0.319425 v 0.12325 l 0.14575,-0.12325 h -0.14575 z"
   id="path18"
   inkscape:connector-curvature="0"
   style="fill:#ffffff" />





</svg>